<?xml version="1.0" encoding="utf-8"?>
<!-- Generator: Adobe Illustrator 23.0.3, SVG Export Plug-In . SVG Version: 6.00 Build 0)  -->
<svg version="1.1" id="Layer_1" xmlns="http://www.w3.org/2000/svg" xmlns:xlink="http://www.w3.org/1999/xlink" x="0px" y="0px"
	 viewBox="0 0 220 102" style="enable-background:new 0 0 220 102;" xml:space="preserve">
<style type="text/css">
	.st0{fill:#FFFFFF;}
</style>
<title>FS_Brand_Logo2</title>
<desc>Created with Sketch.</desc>
<g>
	<path class="st0" d="M33.6,96.9h-0.5l-1.5,2.9l0,0.1H32l0.4-0.8h1.8l0.4,0.7l0,0h0.5L33.6,96.9L33.6,96.9z M34,98.7h-1.4l0.7-1.4
		L34,98.7z"/>
	<polygon class="st0" points="38.7,97.3 40.7,97.3 39.1,99.9 39.1,100 39.6,100 41.3,97.2 41.3,97.1 41.3,96.9 38.7,96.9 	"/>
	<path class="st0" d="M43.9,96.8c-0.1,0-1.4,0-1.4,1.6c0,1.2,0.7,1.6,1.4,1.6c0.6,0,1.4-0.4,1.4-1.6C45.3,96.9,44,96.8,43.9,96.8z
		 M43.9,99.6c-0.5,0-1-0.4-1-1.2c0-0.5,0.2-1.2,1-1.2c0.7,0,1,0.6,1,1.2C44.9,99.2,44.4,99.6,43.9,99.6z"/>
	<path class="st0" d="M47.9,97.9c-0.5,0-0.8,0.2-1.1,0.4c0-0.3,0.1-0.6,0.3-0.8c0.2-0.2,0.5-0.3,0.7-0.3c0.4,0,0.6,0.1,0.8,0.3l0,0
		l0.3-0.3l0,0c-0.3-0.2-0.6-0.4-1.1-0.4c-0.7,0-1.5,0.5-1.5,1.6c0,0.9,0.6,1.5,1.4,1.5c0.6,0,1.3-0.3,1.3-1
		C49.2,98.4,48.8,97.9,47.9,97.9z M47.9,99.6c-0.4,0-0.9-0.2-1-0.8c0.3-0.3,0.6-0.5,1-0.5c0.5,0,0.8,0.3,0.8,0.6
		C48.7,99.3,48.4,99.6,47.9,99.6z"/>
	<polygon class="st0" points="54.7,99.3 53.7,96.9 53.6,96.9 53,96.9 53,99.9 53.4,99.9 53.4,97.4 54.5,99.9 54.5,99.9 54.9,99.9 
		55.9,97.4 55.9,99.9 56.4,99.9 56.4,96.9 55.7,96.9 	"/>
	<rect x="58" y="96.9" class="st0" width="0.4" height="3"/>
	<path class="st0" d="M61.5,98.1c-0.6-0.1-1-0.1-1-0.5c0-0.4,0.6-0.5,1-0.5c0.7,0,1,0.3,1.1,0.5l0,0.1l0.3-0.3l0,0
		c-0.1-0.1-0.5-0.6-1.5-0.6c-0.9,0-1.4,0.3-1.4,0.9c0,0.7,0.8,0.7,1.4,0.8c0.6,0.1,1.1,0.1,1.1,0.5c0,0.5-0.8,0.5-1,0.5
		c-0.9,0-1.1-0.4-1.3-0.6l0,0l-0.3,0.3l0,0l0,0c0.2,0.3,0.6,0.7,1.6,0.7c1.1,0,1.5-0.5,1.5-0.9C63,98.3,62.2,98.2,61.5,98.1z"/>
	<path class="st0" d="M65.8,98.1c-0.6-0.1-1-0.1-1-0.5c0-0.4,0.6-0.5,1-0.5c0.7,0,1,0.3,1.1,0.5l0,0.1l0.3-0.3l0,0
		c-0.1-0.1-0.5-0.6-1.5-0.6c-0.9,0-1.4,0.3-1.4,0.9c0,0.7,0.8,0.7,1.4,0.8c0.6,0.1,1.1,0.1,1.1,0.5c0,0.5-0.8,0.5-1,0.5
		c-0.9,0-1.1-0.4-1.3-0.6l0,0l-0.3,0.3l0,0l0,0c0.2,0.3,0.6,0.7,1.6,0.7c1.1,0,1.5-0.5,1.5-0.9C67.3,98.3,66.5,98.2,65.8,98.1z"/>
	<rect x="68.8" y="96.9" class="st0" width="0.4" height="3"/>
	<path class="st0" d="M72.5,96.8c-1,0-1.7,0.6-1.7,1.6c0,1.1,0.9,1.6,1.7,1.6s1.7-0.5,1.7-1.6C74.2,97.5,73.5,96.8,72.5,96.8z
		 M72.5,97.2c0.8,0,1.3,0.5,1.3,1.1c0,0.9-0.7,1.2-1.3,1.2c-0.8,0-1.3-0.5-1.3-1.2C71.2,97.7,71.7,97.2,72.5,97.2z"/>
	<polygon class="st0" points="78.4,99.2 76.3,96.9 76.3,96.9 75.7,96.9 75.7,99.9 76.1,99.9 76.1,97.4 78.4,99.9 78.4,99.9 
		78.8,99.9 78.8,96.9 78.4,96.9 	"/>
	<path class="st0" d="M84.3,98.1c-0.6-0.1-1-0.1-1-0.5c0-0.4,0.6-0.5,1-0.5c0.7,0,1,0.3,1.1,0.5l0,0.1l0.3-0.3l0,0
		c-0.1-0.1-0.5-0.6-1.5-0.6c-0.9,0-1.4,0.3-1.4,0.9c0,0.7,0.8,0.7,1.4,0.8c0.6,0.1,1.1,0.1,1.1,0.5c0,0.5-0.8,0.5-1,0.5
		c-0.9,0-1.1-0.4-1.3-0.6l0,0l-0.3,0.3l0,0l0,0c0.2,0.3,0.6,0.7,1.6,0.7c1.1,0,1.5-0.5,1.5-0.9C85.8,98.3,85,98.2,84.3,98.1z"/>
	<polygon class="st0" points="87,97.3 88.4,97.3 88.4,99.9 88.8,99.9 88.8,97.3 90.2,97.3 90.2,96.9 87,96.9 	"/>
	<path class="st0" d="M94.5,97.7c0-0.4-0.2-0.9-1.2-0.9h-1.7v3H92v-1.3h1.1l0.9,1.3l0,0h0.5l-1-1.3C94.1,98.5,94.5,98.3,94.5,97.7z
		 M92,97.3h1.2c0.5,0,0.8,0.1,0.8,0.5c0,0.4-0.3,0.5-0.8,0.5H92V97.3z"/>
	<polygon class="st0" points="96.6,98.5 98.5,98.5 98.5,98.1 96.6,98.1 96.6,97.3 98.8,97.3 98.8,96.9 96.2,96.9 96.2,99.9 
		98.9,99.9 98.9,99.5 96.6,99.5 	"/>
	<polygon class="st0" points="100.7,98.5 102.6,98.5 102.6,98.1 100.7,98.1 100.7,97.3 103,97.3 103,96.9 100.3,96.9 100.3,99.9 
		103,99.9 103,99.5 100.7,99.5 	"/>
	<polygon class="st0" points="104.1,97.3 105.5,97.3 105.5,99.9 105.9,99.9 105.9,97.3 107.3,97.3 107.3,96.9 104.1,96.9 	"/>
	<path class="st0" d="M113.9,98.9c-0.2,0.4-0.6,0.7-1.2,0.7c-0.8,0-1.3-0.4-1.3-1.1c0-0.8,0.4-1.2,1.3-1.2c0.4,0,0.9,0.1,1.2,0.7
		l0,0l0.4-0.2l0,0c-0.2-0.5-0.8-0.9-1.6-0.9c-1,0-1.7,0.6-1.7,1.6c0,1,0.7,1.6,1.7,1.6c0.8,0,1.3-0.3,1.6-0.9l0,0L113.9,98.9
		L113.9,98.9z"/>
	<path class="st0" d="M117.3,96.8c-1,0-1.7,0.6-1.7,1.6c0,1.1,0.9,1.6,1.7,1.6c0.8,0,1.7-0.5,1.7-1.6
		C119,97.5,118.3,96.8,117.3,96.8z M117.3,97.2c0.8,0,1.3,0.5,1.3,1.1c0,0.9-0.7,1.2-1.3,1.2c-0.8,0-1.3-0.5-1.3-1.2
		C116,97.7,116.5,97.2,117.3,97.2z"/>
	<polygon class="st0" points="120.7,99.9 120.8,99.9 120.6,100.5 120.9,100.5 121.2,99.9 121.2,99.3 120.7,99.3 	"/>
	<polygon class="st0" points="125.9,96.9 125.4,96.9 125.4,99.9 128.2,99.9 128.2,99.5 125.9,99.5 	"/>
	<polygon class="st0" points="130,96.9 129.5,96.9 129.5,99.9 132.3,99.9 132.3,99.5 130,99.5 	"/>
	<path class="st0" d="M136.4,98.9c-0.2,0.4-0.6,0.7-1.2,0.7c-0.8,0-1.3-0.4-1.3-1.1c0-0.8,0.4-1.2,1.3-1.2c0.4,0,0.9,0.1,1.2,0.7
		l0,0l0.4-0.2l0,0c-0.2-0.5-0.8-0.9-1.6-0.9c-1,0-1.7,0.6-1.7,1.6c0,1,0.7,1.6,1.7,1.6c0.8,0,1.3-0.3,1.6-0.9l0,0L136.4,98.9
		L136.4,98.9z"/>
	<path class="st0" d="M142.1,96.9h-1.5v3h1.4c0.5,0,1.7-0.1,1.7-1.5C143.7,97.4,143.1,96.9,142.1,96.9z M141.1,97.3h1
		c0.4,0,1.2,0.1,1.2,1.1c0,0.9-0.7,1.1-1.2,1.1h-1V97.3z"/>
	<polygon class="st0" points="145.7,98.5 147.5,98.5 147.5,98.1 145.7,98.1 145.7,97.3 147.9,97.3 147.9,96.9 145.2,96.9 
		145.2,99.9 147.9,99.9 147.9,99.5 145.7,99.5 	"/>
	<polygon class="st0" points="150.7,99.4 149.4,96.9 149.4,96.9 148.9,96.9 150.5,99.9 150.9,99.9 152.4,97 152.4,96.9 151.9,96.9 	
		"/>
	<polygon class="st0" points="154.1,98.5 156,98.5 156,98.1 154.1,98.1 154.1,97.3 156.3,97.3 156.3,96.9 153.7,96.9 153.7,99.9 
		156.4,99.9 156.4,99.5 154.1,99.5 	"/>
	<polygon class="st0" points="158.2,96.9 157.8,96.9 157.8,99.9 160.5,99.9 160.5,99.5 158.2,99.5 	"/>
	<path class="st0" d="M163.5,96.8c-1,0-1.7,0.6-1.7,1.6c0,1.1,0.9,1.6,1.7,1.6c0.8,0,1.7-0.5,1.7-1.6
		C165.2,97.5,164.5,96.8,163.5,96.8z M163.5,97.2c0.8,0,1.3,0.5,1.3,1.1c0,0.9-0.7,1.2-1.3,1.2c-0.8,0-1.3-0.5-1.3-1.2
		C162.2,97.7,162.7,97.2,163.5,97.2z"/>
	<path class="st0" d="M168.4,96.9h-1.7v3h0.4v-1.2h1.3c0.8,0,1.2-0.3,1.2-0.9C169.6,97.2,169.2,96.9,168.4,96.9z M167.1,97.3h1.2
		c0.6,0,0.8,0.1,0.8,0.5c0,0.3-0.2,0.5-0.8,0.5h-1.2V97.3z"/>
	<polygon class="st0" points="172.7,99.3 171.6,96.9 171.6,96.9 171,96.9 171,99.9 171.4,99.9 171.4,97.4 172.5,99.9 172.5,99.9 
		172.9,99.9 173.9,97.4 173.9,99.9 174.3,99.9 174.3,96.9 173.7,96.9 	"/>
	<polygon class="st0" points="176.5,98.5 178.3,98.5 178.3,98.1 176.5,98.1 176.5,97.3 178.7,97.3 178.7,96.9 176,96.9 176,99.9 
		178.8,99.9 178.8,99.5 176.5,99.5 	"/>
	<polygon class="st0" points="182.8,99.2 180.7,96.9 180.7,96.9 180.1,96.9 180.1,99.9 180.6,99.9 180.6,97.4 182.8,99.9 
		182.8,99.9 183.2,99.9 183.2,96.9 182.8,96.9 	"/>
	<polygon class="st0" points="184.6,96.9 184.6,97.3 186,97.3 186,99.9 186.5,99.9 186.5,97.3 187.9,97.3 187.9,96.9 	"/>
</g>
<g>
	<polygon class="st0" points="47.3,81.2 50,81.2 47.9,84.7 47.8,84.8 48.4,84.8 50.7,81 50.7,81 50.7,80.7 47.3,80.7 	"/>
	<path class="st0" d="M53.5,80.6c-0.2,0-1.8,0.1-1.8,2.1c0,1.5,1,2.1,1.8,2.1c0.8,0,1.8-0.5,1.8-2.1C55.3,80.7,53.7,80.6,53.5,80.6z
		 M53.5,84.3c-0.6,0-1.3-0.5-1.3-1.6c0-0.7,0.3-1.6,1.3-1.6c1,0,1.3,0.9,1.3,1.6C54.8,83.8,54.1,84.3,53.5,84.3z"/>
	<path class="st0" d="M58.5,82.1c-0.7,0-1.1,0.3-1.5,0.6c0-0.5,0.2-0.9,0.5-1.2c0.3-0.3,0.6-0.4,1-0.4c0.5,0,0.8,0.1,1.1,0.4l0,0
		l0.3-0.4l0,0c-0.4-0.3-0.7-0.5-1.4-0.5c-1,0-2,0.7-2,2.2c0,1.2,0.7,2,1.9,2c1.1,0,1.7-0.5,1.7-1.4C60.2,82.8,59.7,82.1,58.5,82.1z
		 M58.5,82.6c0.7,0,1.1,0.4,1.1,0.9c0,0.5-0.5,0.9-1.2,0.9c-0.6,0-1.2-0.3-1.3-1.1C57.5,82.8,58,82.6,58.5,82.6z"/>
	<polygon class="st0" points="66.9,83.9 65.5,80.7 65.5,80.7 64.7,80.7 64.7,84.7 65.2,84.7 65.2,81.3 66.7,84.7 66.7,84.7 
		67.2,84.7 68.6,81.3 68.6,84.7 69.2,84.7 69.2,80.7 68.4,80.7 	"/>
	<rect x="71.1" y="80.7" class="st0" width="0.6" height="4"/>
	<path class="st0" d="M75.4,82.4c-0.8-0.1-1.4-0.1-1.4-0.6c0-0.6,0.8-0.7,1.3-0.7c1,0,1.4,0.4,1.5,0.6l0.1,0.1l0.4-0.3l0,0l0,0
		c-0.1-0.2-0.7-0.8-2-0.8c-1.2,0-1.9,0.4-1.9,1.2c0,0.9,1,1,1.9,1.1c0.8,0.1,1.5,0.1,1.5,0.7c0,0.7-1.1,0.7-1.4,0.7
		c-1.2,0-1.5-0.5-1.7-0.8l0,0l-0.4,0.3l0,0l0,0c0.3,0.4,0.8,0.9,2.1,0.9c1.5,0,2-0.6,2-1.2C77.4,82.5,76.3,82.4,75.4,82.4z"/>
	<path class="st0" d="M80.9,82.4c-0.8-0.1-1.4-0.1-1.4-0.6c0-0.6,0.8-0.7,1.3-0.7c1,0,1.4,0.4,1.5,0.6l0.1,0.1l0.4-0.3l0,0l0,0
		c-0.1-0.2-0.7-0.8-2-0.8c-1.2,0-1.9,0.4-1.9,1.2c0,0.9,1,1,1.9,1.1c0.8,0.1,1.5,0.1,1.5,0.7c0,0.7-1.1,0.7-1.4,0.7
		c-1.2,0-1.5-0.5-1.7-0.8l0,0l-0.4,0.3l0,0l0,0c0.3,0.4,0.8,0.9,2.1,0.9c1.5,0,2-0.6,2-1.2C82.9,82.5,81.8,82.4,80.9,82.4z"/>
	<rect x="84.6" y="80.7" class="st0" width="0.6" height="4"/>
	<path class="st0" d="M89.1,80.6c-1.4,0-2.3,0.8-2.3,2.1c0,1.4,1.2,2.1,2.3,2.1s2.3-0.6,2.3-2.1C91.5,81.5,90.5,80.6,89.1,80.6z
		 M89.1,81.1c1,0,1.8,0.6,1.8,1.5c0,1.2-0.9,1.6-1.8,1.6c-1.1,0-1.8-0.6-1.8-1.6C87.4,81.7,88.1,81.1,89.1,81.1z"/>
	<polygon class="st0" points="96.7,83.8 93.9,80.7 93.9,80.7 93.1,80.7 93.1,84.7 93.7,84.7 93.7,81.3 96.7,84.7 96.7,84.7 
		97.3,84.7 97.3,80.7 96.7,80.7 	"/>
	<polygon class="st0" points="99.4,84.7 99.6,84.7 99.3,85.5 99.7,85.5 100,84.7 100,84 99.4,84 	"/>
	<path class="st0" d="M106.9,82.4c-0.8-0.1-1.4-0.1-1.4-0.6c0-0.6,0.8-0.7,1.3-0.7c1,0,1.4,0.4,1.5,0.6l0.1,0.1l0.4-0.3l0,0l0,0
		c-0.1-0.2-0.7-0.8-2-0.8c-1.2,0-1.9,0.4-1.9,1.2c0,0.9,1,1,1.9,1.1c0.8,0.1,1.5,0.1,1.5,0.7c0,0.7-1.1,0.7-1.4,0.7
		c-1.2,0-1.5-0.5-1.7-0.8l0,0l-0.4,0.3l0,0l0,0c0.3,0.4,0.8,0.9,2.1,0.9c1.5,0,2-0.6,2-1.2C108.9,82.5,107.8,82.4,106.9,82.4z"/>
	<path class="st0" d="M112.8,80.7h-0.6l-2,3.9l0,0.1h0.6l0.5-1h2.5l0.5,1h0.6L112.8,80.7L112.8,80.7z M113.5,83.2h-2l1-2L113.5,83.2
		z"/>
	<polygon class="st0" points="119.9,83.8 117.1,80.7 117.1,80.7 116.4,80.7 116.4,84.7 116.9,84.7 116.9,81.3 119.9,84.7 120,84.7 
		120.5,84.7 120.5,80.7 119.9,80.7 	"/>
	<polygon class="st0" points="125.4,84.7 125.9,84.7 125.9,82.9 128.6,82.9 128.6,82.4 125.9,82.4 125.9,81.2 129,81.2 129,80.7 
		125.4,80.7 	"/>
	<path class="st0" d="M134.4,81.8c0-0.8-0.5-1.1-1.6-1.1h-2.3v4h0.6V83h1.5l1.2,1.7l0,0h0.7l-1.3-1.7
		C133.8,82.9,134.4,82.6,134.4,81.8z M131.1,81.2h1.6c0.7,0,1.1,0.1,1.1,0.6c0,0.5-0.4,0.6-1.1,0.6h-1.6V81.2z"/>
	<path class="st0" d="M138.6,80.7H138l-2.1,4h0.6l0.5-1h2.5l0.5,1h0.6L138.6,80.7L138.6,80.7z M139.3,83.2h-2l1-2L139.3,83.2z"/>
	<polygon class="st0" points="145.7,83.8 142.9,80.7 142.9,80.7 142.1,80.7 142.1,84.7 142.7,84.7 142.7,81.3 145.7,84.7 
		145.7,84.7 146.3,84.7 146.3,80.7 145.7,80.7 	"/>
	<path class="st0" d="M151.9,83.4c-0.3,0.6-0.9,0.9-1.6,0.9c-1.1,0-1.7-0.6-1.7-1.5c0-1.1,0.6-1.7,1.7-1.7c0.6,0,1.3,0.2,1.6,0.9
		l0,0l0.4-0.2l0,0l0,0c-0.3-0.7-1.1-1.1-2.1-1.1c-1.4,0-2.3,0.8-2.3,2.1c0,1.3,0.9,2.1,2.3,2.1c1,0,1.7-0.4,2.1-1.2l0,0L151.9,83.4
		L151.9,83.4z"/>
	<rect x="154" y="80.7" class="st0" width="0.6" height="4"/>
	<path class="st0" d="M158.3,82.4c-0.8-0.1-1.4-0.1-1.4-0.6c0-0.6,0.8-0.7,1.3-0.7c1,0,1.4,0.4,1.5,0.6l0.1,0.1l0.4-0.3l0,0
		c-0.1-0.2-0.7-0.8-2-0.8c-1.2,0-1.9,0.4-1.9,1.2c0,0.9,1,1,1.9,1.1c0.8,0.1,1.5,0.1,1.5,0.7c0,0.7-1.1,0.7-1.4,0.7
		c-1.2,0-1.5-0.5-1.7-0.8l0,0l-0.4,0.3l0,0l0,0c0.3,0.4,0.8,0.9,2.1,0.9c1.5,0,2-0.6,2-1.2C160.3,82.5,159.2,82.4,158.3,82.4z"/>
	<path class="st0" d="M165.6,83.4c-0.3,0.6-0.9,0.9-1.6,0.9c-1.1,0-1.7-0.6-1.7-1.5c0-1.1,0.6-1.7,1.7-1.7c0.6,0,1.3,0.2,1.6,0.9
		l0,0l0.4-0.2l0,0l0,0c-0.3-0.7-1.1-1.1-2.1-1.1c-1.4,0-2.3,0.8-2.3,2.1c0,1.3,0.9,2.1,2.3,2.1c1,0,1.7-0.4,2.1-1.2l0,0L165.6,83.4
		L165.6,83.4z"/>
	<path class="st0" d="M169.8,80.6c-1.4,0-2.3,0.8-2.3,2.1c0,1.4,1.2,2.1,2.3,2.1c1.1,0,2.3-0.6,2.3-2.1
		C172.1,81.5,171.2,80.6,169.8,80.6z M169.8,81.1c1,0,1.8,0.6,1.8,1.5c0,1.2-0.9,1.6-1.8,1.6c-1.1,0-1.8-0.6-1.8-1.6
		C168.1,81.7,168.8,81.1,169.8,81.1z"/>
</g>
<g>
	<path class="st0" d="M59.1,69.6h-2.5v4.3h0.8v-1.7h1.7c1.4,0,1.7-0.7,1.7-1.3C60.8,70.3,60.5,69.6,59.1,69.6z M57.4,70.3H59
		c0.9,0,1,0.2,1,0.5c0,0.3-0.1,0.5-1,0.5h-1.5V70.3z"/>
	<path class="st0" d="M67.2,70.8c0-0.6-0.3-1.3-1.7-1.3H63v4.3h0.8v-1.7h1.3l1.3,1.7h1L66.1,72C66.6,71.9,67.2,71.6,67.2,70.8z
		 M63.8,70.3h1.5c0.9,0,1,0.2,1,0.5c0,0.3-0.2,0.5-1,0.5h-1.5V70.3z"/>
	<rect x="69.9" y="69.6" class="st0" width="0.8" height="4.3"/>
	<polygon class="st0" points="75.3,72.8 73.7,69.6 72.8,69.6 75,73.8 75.6,73.8 77.8,69.6 76.9,69.6 	"/>
	<path class="st0" d="M80.9,69.6l-2.2,4.3h0.9l0.5-1h2.3l0.5,1h0.9l-2.2-4.3H80.9z M80.5,72l0.8-1.6l0.8,1.6H80.5z"/>
	<polygon class="st0" points="84.8,70.3 86.7,70.3 86.7,73.8 87.5,73.8 87.5,70.3 89.4,70.3 89.4,69.6 84.8,69.6 	"/>
	<polygon class="st0" points="92.4,72 94.9,72 94.9,71.2 92.4,71.2 92.4,70.3 95.4,70.3 95.4,69.6 91.6,69.6 91.6,73.8 95.5,73.8 
		95.5,73 92.4,73 	"/>
	<path class="st0" d="M105.9,70.8c0-0.6-0.3-1.3-1.7-1.3h-2.4v4.3h0.8v-1.7h1.3l1.3,1.7h1l-1.3-1.8
		C105.4,71.9,105.9,71.6,105.9,70.8z M102.6,70.3h1.5c0.9,0,1,0.2,1,0.5c0,0.3-0.2,0.5-1,0.5h-1.5V70.3z"/>
	<polygon class="st0" points="109.4,72 111.9,72 111.9,71.2 109.4,71.2 109.4,70.3 112.4,70.3 112.4,69.6 108.6,69.6 108.6,73.8 
		112.5,73.8 112.5,73 109.4,73 	"/>
	<path class="st0" d="M116.9,71.2c-0.8-0.1-1.3-0.1-1.3-0.5c0-0.5,0.7-0.5,1.2-0.5c0.9,0,1.3,0.4,1.5,0.6l0.1,0.1l0.6-0.5l-0.1-0.1
		c-0.1-0.2-0.7-0.9-2.1-0.9c-1.3,0-2,0.5-2,1.3c0,1,1.1,1.1,2,1.2c0.8,0.1,1.4,0.2,1.4,0.5c0,0.6-1.1,0.6-1.3,0.6
		c-1.1,0-1.4-0.4-1.6-0.7l-0.1-0.1l-0.6,0.5l0.1,0.1c0.3,0.4,0.9,1,2.2,1c1.6,0,2.1-0.7,2.1-1.4C119,71.4,117.8,71.3,116.9,71.2z"/>
	<rect x="121.6" y="69.6" class="st0" width="0.8" height="4.3"/>
	<path class="st0" d="M127.3,69.6h-2.1v4.3h2c1.5,0,2.4-0.8,2.4-2.2C129.6,70.4,128.7,69.6,127.3,69.6z M127.3,73H126v-2.7h1.3
		c0.7,0,1.4,0.2,1.4,1.3C128.8,72.6,128.3,73,127.3,73z"/>
	<polygon class="st0" points="132.8,72 135.3,72 135.3,71.2 132.8,71.2 132.8,70.3 135.8,70.3 135.8,69.6 132,69.6 132,73.8 
		135.9,73.8 135.9,73 132.8,73 	"/>
	<polygon class="st0" points="141.9,72.5 139.2,69.6 138.3,69.6 138.3,73.8 139.1,73.8 139.1,70.6 142,73.8 142.7,73.8 142.7,69.6 
		141.9,69.6 	"/>
	<path class="st0" d="M149.1,72.3c-0.3,0.6-0.8,0.8-1.5,0.8c-1,0-1.6-0.5-1.6-1.4c0-1,0.5-1.6,1.6-1.6c0.5,0,1.2,0.1,1.5,0.8
		l0.1,0.2l0.7-0.3l-0.1-0.2c-0.3-0.8-1.2-1.2-2.2-1.2c-1.5,0-2.4,0.9-2.4,2.2c0,1.1,0.6,2.2,2.4,2.2c1.1,0,1.8-0.4,2.3-1.2l0.1-0.2
		l-0.7-0.3L149.1,72.3z"/>
	<polygon class="st0" points="153.1,72 155.7,72 155.7,71.2 153.1,71.2 153.1,70.3 156.1,70.3 156.1,69.6 152.3,69.6 152.3,73.8 
		156.2,73.8 156.2,73 153.1,73 	"/>
	<path class="st0" d="M160.7,71.2c-0.8-0.1-1.3-0.1-1.3-0.5c0-0.5,0.7-0.5,1.2-0.5c0.9,0,1.3,0.4,1.5,0.6l0.1,0.1l0.6-0.5l-0.1-0.1
		c-0.1-0.2-0.7-0.9-2.1-0.9c-1.3,0-2,0.5-2,1.3c0,1,1.1,1.1,2,1.2c0.8,0.1,1.4,0.2,1.4,0.5c0,0.6-1.1,0.6-1.3,0.6
		c-1.1,0-1.4-0.4-1.6-0.7l-0.1-0.1l-0.6,0.5l0.1,0.1c0.3,0.4,0.9,1,2.2,1c1.6,0,2.1-0.7,2.1-1.4C162.8,71.4,161.6,71.3,160.7,71.2z"
		/>
</g>
<path class="st0" d="M47.3,62.4h-3.9v-0.6h1.1v-9.8h-1v-0.6h6.9c1.5,0,3.5,0,3.5,0l0,0l0.4,3.4h-0.5l0-0.1c-0.6-2.1-1.1-2.7-3.3-2.7
	h-4.1v4.8h2.4c2,0,2.6-0.2,2.6-1.5v-0.2h0.5V59h-0.5v-0.2c0-0.9-0.6-1.4-2.6-1.4h-2.4v4.4h1V62.4z"/>
<path class="st0" d="M60.8,62.6c-4,0-6.1-2.4-6.1-4.6c0-2.9,3.1-4.7,6.1-4.7c4,0,6.1,2.4,6.1,4.7C66.9,61,63.8,62.6,60.8,62.6
	 M60.8,53.8c-2.7,0-4.3,1.5-4.3,4.2c0,2.7,1.5,4.1,4.3,4.1c2.8,0,4.3-1.5,4.3-4.1C65.1,55.3,63.5,53.8,60.8,53.8"/>
<path class="st0" d="M73.3,62.6c-2.2,0-4.9-0.8-4.9-4.6V54h-0.9v-0.5h3.6V54h-1V58c0,3.5,2,4,3.2,4c1.9,0,3.9-1.1,3.9-4V54h-0.9
	v-0.5h2.2V54h-0.8V58C77.6,61.4,75.3,62.6,73.3,62.6"/>
<path class="st0" d="M106.8,52.5l0.2,2.7l-0.5,0l-0.1-0.4c-0.7-2-2.1-2.9-4.3-2.9c-2.2,0-3.5,0.6-3.5,1.7c0,1.1,1.8,1.6,3.7,2.1
	c2.4,0.6,5.1,1.3,5.1,3.5c0,2.3-1.8,3.5-5.4,3.5c0,0-2.6-0.1-4.7-0.9l-0.6-3.2h0.4l0.2,0.5c0.7,1.8,2.5,3,4.6,3
	c1.5,0,4.1-0.3,4.1-2.1c0-1.3-1.9-1.8-4-2.3c-2.4-0.6-4.8-1.2-4.8-3.3c0-1.9,1.7-3.1,4.8-3.1c0.9,0,1.5,0.1,2.3,0.4
	C104.5,51.6,106,52.1,106.8,52.5"/>
<path class="st0" d="M118.1,62.5L118.1,62.5c-0.1,0-1.6-0.1-2.4-0.1H109v-0.5h1V54h-1v-0.5h6.5c0.8,0,1.7,0,1.9-0.1l0.5-0.1l0.3,2.5
	l-0.4,0l0-0.1c-0.5-1.7-1.4-1.8-2.2-1.8h-3.9v3.5h2.2c1.5,0,2.1-0.2,2.1-1.3V56h0.5v3.4h-0.5v-0.2c0-0.8-0.5-1.2-2.1-1.2h-2.2v3.9
	h4.1c1.5,0,1.8-0.5,2.3-1.6l0-0.1h0.5L118.1,62.5z"/>
<path class="st0" d="M128.1,62.4v-0.5h0.9l-1.3-2.4H122l-1.4,2.4h0.9v0.5h-2.3v-0.5h0.8l4.4-7.9h-0.8v-0.5h2.4l0.1,0.1l4.6,8.3h0.9
	v0.5L128.1,62.4z M122.3,58.9h5.1l-2.5-4.6L122.3,58.9z"/>
<path class="st0" d="M148.6,62.1c-2.7,0-4.3-1.5-4.3-4.1c0-2.7,1.6-4.2,4.3-4.2c2.7,0,4.3,1.5,4.3,4.2
	C152.9,60.6,151.3,62.1,148.6,62.1 M148.6,53.2c-3,0-6.1,1.8-6.1,4.7c0,2.3,2.1,4.6,6.1,4.6c3,0,6.1-1.6,6.1-4.6
	C154.7,55.7,152.6,53.2,148.6,53.2"/>
<polygon class="st0" points="155.4,53.4 155.4,54 156.1,54 156.5,54.3 156.5,61.9 155.5,61.9 155.5,62.4 158,62.4 158,61.9 
	157,61.9 157,54.8 165.5,62.7 165.6,62.8 165.6,54 166.4,54 166.4,53.4 164.1,53.4 164.1,54 165.1,54 165.1,60.2 158,53.4 158,53.4 
	"/>
<path class="st0" d="M90.2,62.6l0-0.5c-1.4,0-1.5-0.6-1.9-1.2l-1.2-2.6c0.1,0,0.2,0,0.2,0c1.2-0.3,1.8-1.1,1.8-2.3
	c0-2.5-3.1-2.5-4.1-2.5h-5.9V54h1v7.9h-1v0.5h3.5v-0.5h-0.8v-3.5h3.3c0.1,0,0.2,0,0.3,0l2.2,4.2H90.2z M85.1,57.9h-3.2V54h3.2
	c1.5,0,2.3,0.6,2.3,2C87.3,57.3,86.6,57.9,85.1,57.9z"/>
<path class="st0" d="M140.7,54.4l0.2,2.2l-0.4,0l-0.1-0.4c-0.6-1.6-1.7-2.3-3.5-2.3c-1.8,0-2.9,0.5-2.9,1.4c0,0.9,1.5,1.3,3,1.7
	c1.9,0.5,4.1,1,4.1,2.9c0,1.9-1.5,2.9-4.4,2.9c0,0-2.1-0.1-3.8-0.7l-0.5-2.6h0.4l0.1,0.4c0.6,1.5,2.1,2.4,3.8,2.4
	c1.3,0,3.4-0.2,3.4-1.7c0-1.1-1.6-1.5-3.2-1.9c-1.9-0.5-3.9-1-3.9-2.7c0-1.6,1.4-2.5,3.9-2.5c0.8,0,1.2,0.1,1.9,0.3
	C138.8,53.6,140,54,140.7,54.4"/>
<path class="st0" d="M175.5,54.4l0.2,2.2l-0.4,0l-0.1-0.4c-0.6-1.6-1.7-2.3-3.5-2.3c-1.8,0-2.9,0.5-2.9,1.4c0,0.9,1.5,1.3,3,1.7
	c1.9,0.5,4.1,1,4.1,2.9c0,1.9-1.5,2.9-4.4,2.9c0,0-2.1-0.1-3.8-0.7l-0.5-2.6h0.4l0.1,0.4c0.6,1.5,2.1,2.4,3.8,2.4
	c1.3,0,3.4-0.2,3.4-1.7c0-1.1-1.6-1.5-3.2-1.9c-1.9-0.5-3.9-1-3.9-2.7c0-1.6,1.4-2.5,3.9-2.5c0.8,0,1.2,0.1,1.9,0.3
	C173.6,53.6,174.8,54,175.5,54.4"/>
<g>
	<path class="st0" d="M124.3,27.5c-0.8,0.3-1.2,0.9-1.1,1.8C124.1,29,124.4,28.3,124.3,27.5z"/>
	<path class="st0" d="M121.2,28.1c0.1,0.8,0.6,1.4,1.6,1.4C122.7,28.5,122,28.1,121.2,28.1z"/>
	<path class="st0" d="M122.8,32c0-1-0.7-1.3-1.6-1.4C121.3,31.4,121.7,32,122.8,32z"/>
	<path class="st0" d="M120,19.2c-0.8,0.1-1.5,0.5-1.6,1.4C119.4,20.6,119.8,20,120,19.2z"/>
	<path class="st0" d="M116.2,18.5c0.1,0.8,0.6,1.4,1.6,1.4C117.7,19,117.1,18.6,116.2,18.5z"/>
	<path class="st0" d="M116,15.6c1,0,1.4-0.6,1.6-1.4C116.7,14.2,116.1,14.6,116,15.6z"/>
	<path class="st0" d="M116.8,12c-0.8,0.3-1.2,0.9-1,1.8C116.6,13.5,116.9,12.8,116.8,12z"/>
	<path class="st0" d="M114.1,12.7c0,0.8,0.4,1.5,1.3,1.6C115.4,13.3,114.8,12.9,114.1,12.7z"/>
	<path class="st0" d="M113.7,10.4c1,0,1.4-0.6,1.6-1.4C114.4,9,113.8,9.4,113.7,10.4z"/>
	<path class="st0" d="M114.5,7c-0.7,0.4-1.1,1-0.8,1.9C114.5,8.5,114.7,7.8,114.5,7z"/>
	<path class="st0" d="M113.4,9.6c0-1-0.5-1.4-1.3-1.6C112.1,8.8,112.5,9.5,113.4,9.6z"/>
	<path class="st0" d="M112.9,11c-0.1-1-0.7-1.3-1.6-1.4C111.5,10.4,111.9,11,112.9,11z"/>
	<path class="st0" d="M110.3,12.9c0.3-0.2,3.3-1.9,3.3-1.9c0,0,0,0,0,0l-0.1-1.1h0c0,0,0,0.4,0,0.6c0,0.2,0,0.3-0.2,0.4l-3.3,1.7
		c0,0.3,0,0.5,0,0.8C110,13.2,110.1,13,110.3,12.9z"/>
	<path class="st0" d="M109.6,3.5c-0.1-1-0.7-1.3-1.6-1.4C108.2,2.9,108.6,3.5,109.6,3.5z"/>
	<path class="st0" d="M109.6,5c-0.1-1-0.7-1.3-1.6-1.4C108.2,4.4,108.6,5,109.6,5z"/>
	<path class="st0" d="M109.5,6.6c-0.1-1-0.7-1.3-1.6-1.4C108.1,6,108.6,6.6,109.5,6.6z"/>
	<path class="st0" d="M109.5,8.2c-0.1-1-0.7-1.3-1.6-1.4C108.1,7.6,108.6,8.1,109.5,8.2z"/>
	<path class="st0" d="M109.5,9.7c-0.1-1-0.7-1.3-1.6-1.4C108.1,9.1,108.5,9.7,109.5,9.7z"/>
	<path class="st0" d="M109.5,11.3c-0.1-1-0.7-1.3-1.6-1.4C108.1,10.7,108.5,11.3,109.5,11.3z"/>
	<path class="st0" d="M107.4,7.7c-0.8,0.3-1.3,0.8-1.2,1.7C107.1,9.2,107.4,8.5,107.4,7.7z"/>
	<path class="st0" d="M106.2,10.6c1,0,1.4-0.6,1.6-1.4C107,9.3,106.3,9.6,106.2,10.6z"/>
	<path class="st0" d="M105.8,9.6c0.1-1-0.4-1.5-1.2-1.8C104.6,8.7,104.9,9.4,105.8,9.6z"/>
	<path class="st0" d="M105.6,10.7c-0.1-1-0.7-1.3-1.6-1.4C104.2,10.1,104.7,10.7,105.6,10.7z"/>
	<path class="st0" d="M107.9,15.1c-0.8,0.1-1.5,0.5-1.6,1.4C107.3,16.5,107.8,15.9,107.9,15.1z"/>
	<path class="st0" d="M105.2,15.9c1,0,1.4-0.6,1.6-1.4C106,14.6,105.3,15,105.2,15.9z"/>
	<path class="st0" d="M109.1,15.7c-0.8,0.1-1.5,0.5-1.6,1.4C108.5,17.1,108.9,16.5,109.1,15.7z"/>
	<path class="st0" d="M107,14.1c1,0,1.4-0.6,1.6-1.4C107.8,12.7,107.1,13.1,107,14.1z"/>
	<path class="st0" d="M105.9,13.4c1,0,1.4-0.6,1.6-1.4C106.7,12.1,106,12.5,105.9,13.4z"/>
	<path class="st0" d="M104.8,12.8c1,0,1.4-0.6,1.6-1.4C105.6,11.5,104.9,11.8,104.8,12.8z"/>
	<path class="st0" d="M105.6,13.9c-0.8,0.1-1.5,0.5-1.6,1.4C105.1,15.3,105.5,14.7,105.6,13.9z"/>
	<path class="st0" d="M103.8,13.8c0.1-1-0.4-1.5-1.2-1.7C102.6,12.9,102.9,13.6,103.8,13.8z"/>
	<path class="st0" d="M103.5,15.3c-0.1-1-0.7-1.3-1.6-1.4C102.1,14.7,102.5,15.3,103.5,15.3z"/>
	<path class="st0" d="M104.3,20.2c-0.8,0.1-1.5,0.5-1.6,1.4C103.7,21.6,104.2,21,104.3,20.2z"/>
	<path class="st0" d="M101.7,20.9c1,0,1.4-0.6,1.6-1.4C102.4,19.6,101.8,20,101.7,20.9z"/>
	<path class="st0" d="M105.5,20.8c-0.8,0.1-1.5,0.5-1.6,1.4C104.9,22.2,105.3,21.6,105.5,20.8z"/>
	<path class="st0" d="M106.6,21.3c-0.8,0.1-1.5,0.5-1.6,1.4C106,22.7,106.5,22.2,106.6,21.3z"/>
	<path class="st0" d="M107.7,21.9c-0.8,0.1-1.5,0.5-1.6,1.4C107.2,23.3,107.6,22.7,107.7,21.9z"/>
	<path class="st0" d="M108.9,22.5c-0.8,0.1-1.5,0.5-1.6,1.4C108.3,23.9,108.8,23.3,108.9,22.5z"/>
	<path class="st0" d="M107.3,20.2c1,0,1.4-0.6,1.6-1.4C108,18.8,107.4,19.2,107.3,20.2z"/>
	<path class="st0" d="M106.2,19.5c1,0,1.4-0.6,1.6-1.4C106.9,18.2,106.3,18.6,106.2,19.5z"/>
	<path class="st0" d="M105.1,18.9c1,0,1.4-0.6,1.6-1.4C105.8,17.5,105.2,17.9,105.1,18.9z"/>
	<path class="st0" d="M104,18.2c1,0,1.4-0.6,1.6-1.4C104.7,16.9,104.1,17.3,104,18.2z"/>
	<path class="st0" d="M102.9,17.6c1,0,1.4-0.6,1.6-1.4C103.6,16.3,103,16.6,102.9,17.6z"/>
	<path class="st0" d="M103.2,18.1c-0.8,0.1-1.5,0.5-1.6,1.4C102.6,19.5,103,18.9,103.2,18.1z"/>
	<path class="st0" d="M101.4,18.7c0.2-0.9-0.2-1.5-1-1.9C100.3,17.6,100.5,18.4,101.4,18.7z"/>
	<path class="st0" d="M101.2,19.9c-0.1-1-0.7-1.3-1.6-1.4C99.8,19.3,100.2,19.9,101.2,19.9z"/>
	<path class="st0" d="M101,21.4c-0.1-1-0.7-1.3-1.6-1.4C99.5,20.8,100,21.4,101,21.4z"/>
	<path class="st0" d="M103.6,25.3c1,0,1.4-0.6,1.6-1.4C104.4,24,103.8,24.4,103.6,25.3z"/>
	<path class="st0" d="M103.6,27.5c1,0,1.4-0.6,1.6-1.4C104.4,26.2,103.8,26.6,103.6,27.5z"/>
	<path class="st0" d="M102.6,24.7c1,0,1.4-0.6,1.6-1.4C103.3,23.3,102.7,23.7,102.6,24.7z"/>
	<path class="st0" d="M101.5,24c1,0,1.4-0.6,1.6-1.4C102.2,22.7,101.6,23.1,101.5,24z"/>
	<path class="st0" d="M100.4,23.4c1,0,1.4-0.6,1.6-1.4C101.1,22,100.5,22.4,100.4,23.4z"/>
	<path class="st0" d="M123,29.5c0,0,0.1,1.6,0.1,2.2c0,0.7-0.1,1-0.7,1.3l-12,6.2l0,0c0-1.2,0-2.5-0.1-4l0-0.4
		c0-0.8,0.2-1.2,1.2-1.8c0.8-0.5,9.7-5.7,9.7-5.7c0,0,0.1,0,0.1-0.1l-0.4-3.1h-0.1c0,0,0.1,1.3,0.1,1.8c0,0.6-0.1,0.8-0.6,1.1
		l-9.9,5.1c0-1.5-0.1-3.1-0.1-4.7l0-0.4c0-0.5,0.2-0.8,0.8-1.2c0.6-0.4,7.2-4.2,7.2-4.2c0,0,0,0,0-0.1l-0.3-2.3h-0.1
		c0,0,0.1,1,0.1,1.4c0,0.4-0.1,0.6-0.4,0.8l-7.3,3.8c0-1.8-0.1-3.7-0.1-5.5v0c0.1-0.3,0.2-0.6,0.6-0.8c0.4-0.3,5.2-3,5.2-3
		c0,0,0,0,0-0.1l-0.2-1.7h-0.1c0,0,0.1,0.7,0,1c0,0.3-0.1,0.4-0.3,0.6l-5.3,2.7v0c0-1.7-0.1-3.3-0.1-4.9v0c0-0.3,0-0.5,0-0.8
		c-0.1-6-0.2-10.5-0.2-10.5c0,0,0-0.1-0.1-0.1c0,0,0,0,0,0.1c0,0-0.1,4.5-0.2,10.5c0,0.1,0,0.2,0,0.4c0-0.1,0-0.2,0-0.4l-3.3-1.7
		c-0.2-0.1-0.2-0.2-0.2-0.4c0-0.2,0-0.6,0-0.6h0l-0.1,1.1c0,0,0,0,0,0c0,0,3,1.7,3.3,1.9c0.2,0.1,0.3,0.3,0.3,0.4c0,0,0,0,0,0l0,0
		c0,1.6-0.1,3.2-0.1,4.9l-5.2-2.7c-0.2-0.2-0.3-0.3-0.3-0.6c0-0.3,0-1,0-1h-0.1l-0.2,1.7c0,0,0,0.1,0,0.1c0,0,4.7,2.8,5.2,3
		c0.4,0.2,0.5,0.5,0.6,0.8c0,0,0,0,0,0l0,0c0,1.8-0.1,3.7-0.1,5.6l-7.3-3.8c-0.3-0.2-0.4-0.4-0.4-0.8c0-0.4,0.1-1.4,0.1-1.4h-0.1
		l-0.3,2.3c0,0.1,0,0.1,0,0.1c0,0,6.6,3.9,7.2,4.2c0.7,0.4,0.8,0.7,0.8,1.3l0,0.5v0c0,1.6-0.1,3.2-0.1,4.7v0L99.3,27
		c-0.5-0.3-0.5-0.5-0.6-1.1c0-0.5,0.1-1.8,0.1-1.8h-0.1l-0.4,3.1c0,0.1,0,0.1,0.1,0.1c0,0,8.8,5.2,9.7,5.7c0.9,0.6,1.2,1,1.2,1.8v0
		l0,0c0,1.6-0.1,3.1-0.1,4.4L97,33c-0.6-0.4-0.6-0.6-0.7-1.3c0-0.6,0.1-2.2,0.1-2.2h-0.2l-0.5,3.8c0,0.1,0,0.1,0.1,0.1
		c0,0,10.7,6.3,11.7,6.9c1.2,0.7,1.4,0.8,1.4,2.1c0,0.1,0,1.6,0,1.7c0,1.2-0.9,1.2-0.9,1.2l0,0.2h3.4l0-0.2c0,0-0.9,0-0.9-1.2
		c0-0.1,0-1.6,0-1.7c0-1.3,0.2-1.4,1.4-2.1c1-0.6,11.7-6.9,11.7-6.9c0,0,0.1,0,0.1-0.1l-0.5-3.8H123z"/>
	<path class="st0" d="M105.9,26.7c1,0,1.4-0.6,1.6-1.4C106.6,25.3,106,25.7,105.9,26.7z"/>
	<path class="st0" d="M108.5,26c-0.8,0.1-1.5,0.5-1.6,1.4C108,27.4,108.4,26.8,108.5,26z"/>
	<path class="st0" d="M114.4,22.7c0.8-0.6,0.7-1.3,0.4-2.1C114.1,21.2,113.9,21.9,114.4,22.7z"/>
	<path class="st0" d="M112.8,21.7c-0.6,0.6-0.9,1.2-0.4,2.1C113.2,23.2,113.2,22.4,112.8,21.7z"/>
	<path class="st0" d="M110.7,18.8c0.1,0.8,0.6,1.4,1.6,1.4C112.2,19.3,111.6,18.9,110.7,18.8z"/>
	<path class="st0" d="M116.3,25.2c-0.1-1-0.7-1.3-1.6-1.4C114.9,24.6,115.3,25.2,116.3,25.2z"/>
	<path class="st0" d="M114.4,26.3c-0.1-1-0.7-1.3-1.6-1.4C112.9,25.6,113.4,26.2,114.4,26.3z"/>
	<path class="st0" d="M119.8,34.1c-0.1-1-0.7-1.4-1.6-1.4C118.4,33.5,118.9,34,119.8,34.1z"/>
	<path class="st0" d="M117.6,35.1c-0.1-1-0.7-1.4-1.6-1.4C116.2,34.5,116.6,35.1,117.6,35.1z"/>
	<path class="st0" d="M115,31.3c0.1,0.8,0.6,1.4,1.6,1.4C116.4,31.7,115.8,31.3,115,31.3z"/>
	<path class="st0" d="M113.5,37.2c-0.1-1-0.7-1.4-1.6-1.4C112.1,36.6,112.5,37.2,113.5,37.2z"/>
	<path class="st0" d="M122.1,34.8c-0.2,0.9,0.4,1.5,1.2,1.7C123.4,35.6,123.1,35,122.1,34.8z"/>
	<path class="st0" d="M120,36.3c0,1,0.7,1.4,1.6,1.4C121.5,36.9,121,36.3,120,36.3z"/>
	<path class="st0" d="M116.7,39.5c0.9-0.4,1.1-1.1,0.9-1.9C116.9,37.9,116.5,38.5,116.7,39.5z"/>
	<path class="st0" d="M120.5,24.8c-0.1-1-0.7-1.3-1.6-1.4C119.1,24.2,119.6,24.8,120.5,24.8z"/>
	<path class="st0" d="M120.5,26.3c-0.1-1-0.7-1.3-1.6-1.4C119.1,25.7,119.5,26.2,120.5,26.3z"/>
	<path class="st0" d="M121.3,27.2c1,0,1.4-0.6,1.6-1.4C122.1,25.9,121.4,26.3,121.3,27.2z"/>
	<path class="st0" d="M122.7,23.4c-0.8,0.1-1.5,0.5-1.6,1.4C122.1,24.8,122.5,24.2,122.7,23.4z"/>
</g>
</svg>
